<svg xmlns="http://www.w3.org/2000/svg" version="1.1" xmlns:xlink="http://www.w3.org/1999/xlink" xmlns:svgjs="http://svgjs.dev/svgjs" width="1000" height="1000" viewBox="0 0 1000 1000"><rect width="1000" height="1000" fill="#ffffff"></rect><g transform="matrix(0.7,0,0,0.7,150.54347806791378,167.76923076923072)"><svg viewBox="0 0 260 247" data-background-color="#ffffff" preserveAspectRatio="xMidYMid meet" height="950" width="1000" xmlns="http://www.w3.org/2000/svg" xmlns:xlink="http://www.w3.org/1999/xlink"><g id="tight-bounds" transform="matrix(1,0,0,1,-0.2018632823679809,-0.09999999999999432)"><svg viewBox="0 0 260.40372656473596 247.2" height="247.2" width="260.40372656473596"><g><svg viewBox="0 0 390.59569450549446 370.7906064" height="247.2" width="260.40372656473596"><g><svg viewBox="0 0 390.59569450549446 370.7906064" height="370.7906064" width="390.59569450549446"><g id="textblocktransform"><svg viewBox="0 0 390.59569450549446 370.7906064" height="370.7906064" width="390.59569450549446" id="textblock"><g><rect width="390.59569450549446" height="247.2" fill="none" stroke-width="9.018103199999999" stroke="#ee3e38" data-fill-palette-color="none" data-stroke-palette-color="tertiary"></rect><rect width="390.59569450549446" height="123.5906064" y="247.2" fill="#ee3e38" data-fill-palette-color="tertiary"></rect></g><g><svg viewBox="0 0 390.59569450549446 247.2" height="247.2" width="390.59569450549446"><g transform="matrix(1,0,0,1,23.607599999999998,23.607599999999998)"><svg width="343.3804945054945" viewBox="0.3700000047683716 -35.54999923706055 61.03000259399414 35.54999923706055" height="199.9848" data-palette-color="#ee3e38"><path d="M5.74-35.55L14.97-17.7 24.24-35.55 29.57-35.55 17.31-13.26 17.31 0 12.62 0 12.62-13.26 0.37-35.55 5.74-35.55ZM55.78 0L43.19-16.53 38.84-12.01 38.84 0 34.15 0 34.15-35.55 38.84-35.55 38.84-17.97 54.64-35.55 60.3-35.55 46.31-19.85 61.4 0 55.78 0Z" opacity="1" transform="matrix(1,0,0,1,0,0)" fill="#ee3e38" class="undefined-text-0" data-fill-palette-color="primary" id="text-0"></path></svg></g></svg></g></svg></g></svg></g></svg></g><defs></defs></svg><rect width="260.40372656473596" height="247.2" fill="none" stroke="none" visibility="hidden"></rect></g></svg></g></svg>